<svg xmlns="http://www.w3.org/2000/svg" xmlns:xlink="http://www.w3.org/1999/xlink" contentStyleType="text/css" height="514px" preserveAspectRatio="none" style="width:262px;height:514px;background:#FFFFFF;" version="1.1" viewBox="0 0 262 514" width="262px" zoomAndPan="magnify"><defs/><g><ellipse cx="131.3291" cy="20" fill="#222222" rx="10" ry="10" style="stroke:#222222;stroke-width:1.0;"/><rect fill="#F1F1F1" height="33.9688" rx="12.5" ry="12.5" style="stroke:#181818;stroke-width:0.5;" width="131.7383" x="65.46" y="50"/><text fill="#000000" font-family="sans-serif" font-size="12" lengthAdjust="spacing" textLength="111.7383" x="75.46" y="71.1387">Create transaction</text><rect fill="#F1F1F1" height="33.9688" rx="12.5" ry="12.5" style="stroke:#181818;stroke-width:0.5;" width="171.4473" x="45.6055" y="103.9688"/><text fill="#000000" font-family="sans-serif" font-size="12" lengthAdjust="spacing" textLength="151.4473" x="55.6055" y="125.1074">Send transaction to node</text><rect fill="#F1F1F1" height="33.9688" rx="12.5" ry="12.5" style="stroke:#181818;stroke-width:0.5;" width="170.6797" x="45.9893" y="157.9375"/><text fill="#000000" font-family="sans-serif" font-size="12" lengthAdjust="spacing" textLength="150.6797" x="55.9893" y="179.0762">Node verifies transaction</text><rect fill="#F1F1F1" height="33.9688" rx="12.5" ry="12.5" style="stroke:#181818;stroke-width:0.5;" width="200.8848" x="30.8867" y="211.9063"/><text fill="#000000" font-family="sans-serif" font-size="12" lengthAdjust="spacing" textLength="180.8848" x="40.8867" y="233.0449">Node adds transaction to pool</text><rect fill="#F1F1F1" height="33.9688" rx="12.5" ry="12.5" style="stroke:#181818;stroke-width:0.5;" width="222.1367" x="20.2607" y="265.875"/><text fill="#000000" font-family="sans-serif" font-size="12" lengthAdjust="spacing" textLength="202.1367" x="30.2607" y="287.0137">Consensus algorithm mines block</text><rect fill="#F1F1F1" height="33.9688" rx="12.5" ry="12.5" style="stroke:#181818;stroke-width:0.5;" width="171.7988" x="45.4297" y="319.8438"/><text fill="#000000" font-family="sans-serif" font-size="12" lengthAdjust="spacing" textLength="151.7988" x="55.4297" y="340.9824">Node adds block to chain</text><rect fill="#F1F1F1" height="33.9688" rx="12.5" ry="12.5" style="stroke:#181818;stroke-width:0.5;" width="240.6582" x="11" y="373.8125"/><text fill="#000000" font-family="sans-serif" font-size="12" lengthAdjust="spacing" textLength="220.6582" x="21" y="394.9512">Blockchain storage saves blockchain</text><rect fill="#F1F1F1" height="33.9688" rx="12.5" ry="12.5" style="stroke:#181818;stroke-width:0.5;" width="96.8809" x="82.8887" y="427.7813"/><text fill="#000000" font-family="sans-serif" font-size="12" lengthAdjust="spacing" textLength="76.8809" x="92.8887" y="448.9199">Return chain</text><ellipse cx="131.3291" cy="492.75" fill="none" rx="11" ry="11" style="stroke:#222222;stroke-width:1.0;"/><ellipse cx="131.3291" cy="492.75" fill="#222222" rx="6" ry="6" style="stroke:#222222;stroke-width:1.0;"/><line style="stroke:#181818;stroke-width:1.0;" x1="131.3291" x2="131.3291" y1="30" y2="50"/><polygon fill="#181818" points="127.3291,40,131.3291,50,135.3291,40,131.3291,44" style="stroke:#181818;stroke-width:1.0;"/><line style="stroke:#181818;stroke-width:1.0;" x1="131.3291" x2="131.3291" y1="83.9688" y2="103.9688"/><polygon fill="#181818" points="127.3291,93.9688,131.3291,103.9688,135.3291,93.9688,131.3291,97.9688" style="stroke:#181818;stroke-width:1.0;"/><line style="stroke:#181818;stroke-width:1.0;" x1="131.3291" x2="131.3291" y1="137.9375" y2="157.9375"/><polygon fill="#181818" points="127.3291,147.9375,131.3291,157.9375,135.3291,147.9375,131.3291,151.9375" style="stroke:#181818;stroke-width:1.0;"/><line style="stroke:#181818;stroke-width:1.0;" x1="131.3291" x2="131.3291" y1="191.9063" y2="211.9063"/><polygon fill="#181818" points="127.3291,201.9063,131.3291,211.9063,135.3291,201.9063,131.3291,205.9063" style="stroke:#181818;stroke-width:1.0;"/><line style="stroke:#181818;stroke-width:1.0;" x1="131.3291" x2="131.3291" y1="245.875" y2="265.875"/><polygon fill="#181818" points="127.3291,255.875,131.3291,265.875,135.3291,255.875,131.3291,259.875" style="stroke:#181818;stroke-width:1.0;"/><line style="stroke:#181818;stroke-width:1.0;" x1="131.3291" x2="131.3291" y1="299.8438" y2="319.8438"/><polygon fill="#181818" points="127.3291,309.8438,131.3291,319.8438,135.3291,309.8438,131.3291,313.8438" style="stroke:#181818;stroke-width:1.0;"/><line style="stroke:#181818;stroke-width:1.0;" x1="131.3291" x2="131.3291" y1="353.8125" y2="373.8125"/><polygon fill="#181818" points="127.3291,363.8125,131.3291,373.8125,135.3291,363.8125,131.3291,367.8125" style="stroke:#181818;stroke-width:1.0;"/><line style="stroke:#181818;stroke-width:1.0;" x1="131.3291" x2="131.3291" y1="407.7813" y2="427.7813"/><polygon fill="#181818" points="127.3291,417.7813,131.3291,427.7813,135.3291,417.7813,131.3291,421.7813" style="stroke:#181818;stroke-width:1.0;"/><line style="stroke:#181818;stroke-width:1.0;" x1="131.3291" x2="131.3291" y1="461.75" y2="481.75"/><polygon fill="#181818" points="127.3291,471.75,131.3291,481.75,135.3291,471.75,131.3291,475.75" style="stroke:#181818;stroke-width:1.0;"/><!--SRC=[NOn13eCm30JllCBleBToxw5zWPku43NOo3QylqcaI9IJvPsTDKVrOPoKq0bSaGs39-7RCBw8upa25s29LD2Z73X8qoUHNRJ6C4Qxkfj8BdmIDcBR3J3FeicN5TR4PUUT9Np_5bfItR1WgkFt6hG7p4Ln9Z0ykjjRJ_9TkKkbkFq0]--></g></svg>