<svg xmlns="http://www.w3.org/2000/svg" xmlns:xlink="http://www.w3.org/1999/xlink" contentStyleType="text/css" height="522px" preserveAspectRatio="none" style="width:813px;height:522px;background:#FFFFFF;" version="1.1" viewBox="0 0 813 522" width="813px" zoomAndPan="magnify"><defs/><g><!--class Blockchain--><g id="elem_Blockchain"><rect codeLine="1" fill="#F1F1F1" height="129.4844" id="Blockchain" rx="2.5" ry="2.5" style="stroke:#181818;stroke-width:0.5;" width="315.8232" x="215.32" y="180.18"/><ellipse cx="331.0934" cy="196.18" fill="#ADD1B2" rx="11" ry="11" style="stroke:#181818;stroke-width:1.0;"/><path d="M334.0622,201.8206 Q333.4841,202.1175 332.8434,202.2581 Q332.2028,202.4144 331.4997,202.4144 Q328.9997,202.4144 327.6716,200.7738 Q326.3591,199.1175 326.3591,195.9925 Q326.3591,192.8675 327.6716,191.2113 Q328.9997,189.555 331.4997,189.555 Q332.2028,189.555 332.8434,189.7113 Q333.4997,189.8675 334.0622,190.1644 L334.0622,192.8831 Q333.4372,192.305 332.8434,192.0394 Q332.2497,191.7581 331.6247,191.7581 Q330.2809,191.7581 329.5934,192.8363 Q328.9059,193.8988 328.9059,195.9925 Q328.9059,198.0863 329.5934,199.1644 Q330.2809,200.2269 331.6247,200.2269 Q332.2497,200.2269 332.8434,199.9613 Q333.4372,199.68 334.0622,199.1019 L334.0622,201.8206 Z " fill="#000000"/><text fill="#000000" font-family="sans-serif" font-size="14" lengthAdjust="spacing" textLength="75.7764" x="351.5934" y="201.0267">Blockchain</text><line style="stroke:#181818;stroke-width:0.5;" x1="216.32" x2="530.1432" y1="212.18" y2="212.18"/><rect fill="none" height="6" style="stroke:#C82930;stroke-width:1.0;" width="6" x="223.32" y="222.8284"/><text fill="#000000" font-family="sans-serif" font-size="14" lengthAdjust="spacing" textLength="132.877" x="235.32" y="229.1751">chain: List&lt;Block&gt;</text><rect fill="none" height="6" style="stroke:#C82930;stroke-width:1.0;" width="6" x="223.32" y="239.1253"/><text fill="#000000" font-family="sans-serif" font-size="14" lengthAdjust="spacing" textLength="247.7959" x="235.32" y="245.472">transactionPool: List&lt;Transaction&gt;</text><line style="stroke:#181818;stroke-width:0.5;" x1="216.32" x2="530.1432" y1="252.7738" y2="252.7738"/><ellipse cx="226.32" cy="266.4222" fill="#84BE84" rx="3" ry="3" style="stroke:#038048;stroke-width:1.0;"/><text fill="#000000" font-family="sans-serif" font-size="14" lengthAdjust="spacing" textLength="289.8232" x="235.32" y="269.7689">addTransaction(transaction: Transaction)</text><ellipse cx="226.32" cy="282.7191" fill="#84BE84" rx="3" ry="3" style="stroke:#038048;stroke-width:1.0;"/><text fill="#000000" font-family="sans-serif" font-size="14" lengthAdjust="spacing" textLength="83.8018" x="235.32" y="286.0657">mineBlock()</text><ellipse cx="226.32" cy="299.0159" fill="#84BE84" rx="3" ry="3" style="stroke:#038048;stroke-width:1.0;"/><text fill="#000000" font-family="sans-serif" font-size="14" lengthAdjust="spacing" textLength="168.8682" x="235.32" y="302.3626">getChain(): List&lt;Block&gt;</text></g><!--class Block--><g id="elem_Block"><rect codeLine="9" fill="#F1F1F1" height="145.7813" id="Block" rx="2.5" ry="2.5" style="stroke:#181818;stroke-width:0.5;" width="251.627" x="138.41" y="369.67"/><ellipse cx="241.0413" cy="385.67" fill="#ADD1B2" rx="11" ry="11" style="stroke:#181818;stroke-width:1.0;"/><path d="M244.0101,391.3106 Q243.432,391.6075 242.7913,391.7481 Q242.1507,391.9044 241.4476,391.9044 Q238.9476,391.9044 237.6195,390.2638 Q236.307,388.6075 236.307,385.4825 Q236.307,382.3575 237.6195,380.7013 Q238.9476,379.045 241.4476,379.045 Q242.1507,379.045 242.7913,379.2013 Q243.4476,379.3575 244.0101,379.6544 L244.0101,382.3731 Q243.3851,381.795 242.7913,381.5294 Q242.1976,381.2481 241.5726,381.2481 Q240.2288,381.2481 239.5413,382.3263 Q238.8538,383.3888 238.8538,385.4825 Q238.8538,387.5763 239.5413,388.6544 Q240.2288,389.7169 241.5726,389.7169 Q242.1976,389.7169 242.7913,389.4513 Q243.3851,389.17 244.0101,388.5919 L244.0101,391.3106 Z " fill="#000000"/><text fill="#000000" font-family="sans-serif" font-size="14" lengthAdjust="spacing" textLength="37.8643" x="261.5413" y="390.5167">Block</text><line style="stroke:#181818;stroke-width:0.5;" x1="139.41" x2="389.037" y1="401.67" y2="401.67"/><rect fill="none" height="6" style="stroke:#C82930;stroke-width:1.0;" width="6" x="146.41" y="412.3184"/><text fill="#000000" font-family="sans-serif" font-size="14" lengthAdjust="spacing" textLength="65.9668" x="158.41" y="418.6651">index: int</text><rect fill="none" height="6" style="stroke:#C82930;stroke-width:1.0;" width="6" x="146.41" y="428.6153"/><text fill="#000000" font-family="sans-serif" font-size="14" lengthAdjust="spacing" textLength="102.9355" x="158.41" y="434.962">timestamp: int</text><rect fill="none" height="6" style="stroke:#C82930;stroke-width:1.0;" width="6" x="146.41" y="444.9122"/><text fill="#000000" font-family="sans-serif" font-size="14" lengthAdjust="spacing" textLength="146.8018" x="158.41" y="451.2589">previousHash: byte[]</text><rect fill="none" height="6" style="stroke:#C82930;stroke-width:1.0;" width="6" x="146.41" y="461.2091"/><text fill="#000000" font-family="sans-serif" font-size="14" lengthAdjust="spacing" textLength="225.627" x="158.41" y="467.5557">transactions: List&lt;Transaction&gt;</text><rect fill="none" height="6" style="stroke:#C82930;stroke-width:1.0;" width="6" x="146.41" y="477.5059"/><text fill="#000000" font-family="sans-serif" font-size="14" lengthAdjust="spacing" textLength="84.9844" x="158.41" y="483.8526">hash: byte[]</text><line style="stroke:#181818;stroke-width:0.5;" x1="139.41" x2="389.037" y1="491.1544" y2="491.1544"/><ellipse cx="149.41" cy="504.8028" fill="#84BE84" rx="3" ry="3" style="stroke:#038048;stroke-width:1.0;"/><text fill="#000000" font-family="sans-serif" font-size="14" lengthAdjust="spacing" textLength="109.5049" x="158.41" y="508.1495">calculateHash()</text></g><!--class Transaction--><g id="elem_Transaction"><rect codeLine="18" fill="#F1F1F1" height="113.1875" id="Transaction" rx="2.5" ry="2.5" style="stroke:#181818;stroke-width:0.5;" width="114.1475" x="425.15" y="385.97"/><ellipse cx="440.15" cy="401.97" fill="#ADD1B2" rx="11" ry="11" style="stroke:#181818;stroke-width:1.0;"/><path d="M443.1188,407.6106 Q442.5406,407.9075 441.9,408.0481 Q441.2594,408.2044 440.5563,408.2044 Q438.0563,408.2044 436.7281,406.5637 Q435.4156,404.9075 435.4156,401.7825 Q435.4156,398.6575 436.7281,397.0012 Q438.0563,395.345 440.5563,395.345 Q441.2594,395.345 441.9,395.5012 Q442.5563,395.6575 443.1188,395.9544 L443.1188,398.6731 Q442.4938,398.095 441.9,397.8294 Q441.3063,397.5481 440.6813,397.5481 Q439.3375,397.5481 438.65,398.6262 Q437.9625,399.6887 437.9625,401.7825 Q437.9625,403.8762 438.65,404.9544 Q439.3375,406.0169 440.6813,406.0169 Q441.3063,406.0169 441.9,405.7512 Q442.4938,405.47 443.1188,404.8919 L443.1188,407.6106 Z " fill="#000000"/><text fill="#000000" font-family="sans-serif" font-size="14" lengthAdjust="spacing" textLength="82.1475" x="454.15" y="406.8167">Transaction</text><line style="stroke:#181818;stroke-width:0.5;" x1="426.15" x2="538.2975" y1="417.97" y2="417.97"/><rect fill="none" height="6" style="stroke:#C82930;stroke-width:1.0;" width="6" x="433.15" y="428.6184"/><text fill="#000000" font-family="sans-serif" font-size="14" lengthAdjust="spacing" textLength="82.2432" x="445.15" y="434.9651">from: string</text><rect fill="none" height="6" style="stroke:#C82930;stroke-width:1.0;" width="6" x="433.15" y="444.9153"/><text fill="#000000" font-family="sans-serif" font-size="14" lengthAdjust="spacing" textLength="63.4102" x="445.15" y="451.262">to: string</text><rect fill="none" height="6" style="stroke:#C82930;stroke-width:1.0;" width="6" x="433.15" y="461.2122"/><text fill="#000000" font-family="sans-serif" font-size="14" lengthAdjust="spacing" textLength="81.4365" x="445.15" y="467.5589">amount: int</text><line style="stroke:#181818;stroke-width:0.5;" x1="426.15" x2="538.2975" y1="474.8606" y2="474.8606"/><ellipse cx="436.15" cy="488.5091" fill="#84BE84" rx="3" ry="3" style="stroke:#038048;stroke-width:1.0;"/><text fill="#000000" font-family="sans-serif" font-size="14" lengthAdjust="spacing" textLength="66.7598" x="445.15" y="491.8557">toString()</text></g><!--class Node--><g id="elem_Node"><rect codeLine="25" fill="#F1F1F1" height="113.1875" id="Node" rx="2.5" ry="2.5" style="stroke:#181818;stroke-width:0.5;" width="238.4541" x="7" y="7"/><ellipse cx="103.708" cy="23" fill="#ADD1B2" rx="11" ry="11" style="stroke:#181818;stroke-width:1.0;"/><path d="M106.6768,28.6406 Q106.0986,28.9375 105.458,29.0781 Q104.8174,29.2344 104.1143,29.2344 Q101.6143,29.2344 100.2861,27.5938 Q98.9736,25.9375 98.9736,22.8125 Q98.9736,19.6875 100.2861,18.0313 Q101.6143,16.375 104.1143,16.375 Q104.8174,16.375 105.458,16.5313 Q106.1143,16.6875 106.6768,16.9844 L106.6768,19.7031 Q106.0518,19.125 105.458,18.8594 Q104.8643,18.5781 104.2393,18.5781 Q102.8955,18.5781 102.208,19.6563 Q101.5205,20.7188 101.5205,22.8125 Q101.5205,24.9063 102.208,25.9844 Q102.8955,27.0469 104.2393,27.0469 Q104.8643,27.0469 105.458,26.7813 Q106.0518,26.5 106.6768,25.9219 L106.6768,28.6406 Z " fill="#000000"/><text fill="#000000" font-family="sans-serif" font-size="14" lengthAdjust="spacing" textLength="36.5381" x="124.208" y="27.8467">Node</text><line style="stroke:#181818;stroke-width:0.5;" x1="8" x2="244.4541" y1="39" y2="39"/><rect fill="none" height="6" style="stroke:#C82930;stroke-width:1.0;" width="6" x="15" y="49.6484"/><text fill="#000000" font-family="sans-serif" font-size="14" lengthAdjust="spacing" textLength="160.002" x="27" y="55.9951">blockchain: Blockchain</text><rect fill="none" height="6" style="stroke:#C82930;stroke-width:1.0;" width="6" x="15" y="65.9453"/><text fill="#000000" font-family="sans-serif" font-size="14" lengthAdjust="spacing" textLength="143.0488" x="27" y="72.292">listener: TcpListener</text><line style="stroke:#181818;stroke-width:0.5;" x1="8" x2="244.4541" y1="79.5938" y2="79.5938"/><ellipse cx="18" cy="93.2422" fill="#84BE84" rx="3" ry="3" style="stroke:#038048;stroke-width:1.0;"/><text fill="#000000" font-family="sans-serif" font-size="14" lengthAdjust="spacing" textLength="43.5313" x="27" y="96.5889">start()</text><ellipse cx="18" cy="109.5391" fill="#84BE84" rx="3" ry="3" style="stroke:#038048;stroke-width:1.0;"/><text fill="#000000" font-family="sans-serif" font-size="14" lengthAdjust="spacing" textLength="212.4541" x="27" y="112.8857">handleClient(client: TcpClient)</text></g><!--class ConsensusAlgorithm--><g id="elem_ConsensusAlgorithm"><rect codeLine="32" fill="#F1F1F1" height="80.5938" id="ConsensusAlgorithm" rx="2.5" ry="2.5" style="stroke:#181818;stroke-width:0.5;" width="186.002" x="280.23" y="23.29"/><ellipse cx="299.7221" cy="39.29" fill="#ADD1B2" rx="11" ry="11" style="stroke:#181818;stroke-width:1.0;"/><path d="M302.6908,44.9306 Q302.1127,45.2275 301.4721,45.3681 Q300.8315,45.5244 300.1283,45.5244 Q297.6283,45.5244 296.3002,43.8837 Q294.9877,42.2275 294.9877,39.1025 Q294.9877,35.9775 296.3002,34.3212 Q297.6283,32.665 300.1283,32.665 Q300.8315,32.665 301.4721,32.8212 Q302.1283,32.9775 302.6908,33.2744 L302.6908,35.9931 Q302.0658,35.415 301.4721,35.1494 Q300.8783,34.8681 300.2533,34.8681 Q298.9096,34.8681 298.2221,35.9462 Q297.5346,37.0087 297.5346,39.1025 Q297.5346,41.1962 298.2221,42.2744 Q298.9096,43.3369 300.2533,43.3369 Q300.8783,43.3369 301.4721,43.0712 Q302.0658,42.79 302.6908,42.2119 L302.6908,44.9306 Z " fill="#000000"/><text fill="#000000" font-family="sans-serif" font-size="14" lengthAdjust="spacing" textLength="144.0195" x="314.7203" y="44.1367">ConsensusAlgorithm</text><line style="stroke:#181818;stroke-width:0.5;" x1="281.23" x2="465.232" y1="55.29" y2="55.29"/><rect fill="none" height="6" style="stroke:#C82930;stroke-width:1.0;" width="6" x="288.23" y="65.9384"/><text fill="#000000" font-family="sans-serif" font-size="14" lengthAdjust="spacing" textLength="160.002" x="300.23" y="72.2851">blockchain: Blockchain</text><line style="stroke:#181818;stroke-width:0.5;" x1="281.23" x2="465.232" y1="79.5869" y2="79.5869"/><ellipse cx="291.23" cy="93.2353" fill="#84BE84" rx="3" ry="3" style="stroke:#038048;stroke-width:1.0;"/><text fill="#000000" font-family="sans-serif" font-size="14" lengthAdjust="spacing" textLength="43.5313" x="300.23" y="96.582">start()</text></g><!--class BlockchainStorage--><g id="elem_BlockchainStorage"><rect codeLine="37" fill="#F1F1F1" height="96.8906" id="BlockchainStorage" rx="2.5" ry="2.5" style="stroke:#181818;stroke-width:0.5;" width="305.4736" x="501.49" y="15.15"/><ellipse cx="584.7004" cy="31.15" fill="#ADD1B2" rx="11" ry="11" style="stroke:#181818;stroke-width:1.0;"/><path d="M587.6692,36.7906 Q587.0911,37.0875 586.4504,37.2281 Q585.8098,37.3844 585.1067,37.3844 Q582.6067,37.3844 581.2786,35.7437 Q579.9661,34.0875 579.9661,30.9625 Q579.9661,27.8375 581.2786,26.1812 Q582.6067,24.525 585.1067,24.525 Q585.8098,24.525 586.4504,24.6812 Q587.1067,24.8375 587.6692,25.1344 L587.6692,27.8531 Q587.0442,27.275 586.4504,27.0094 Q585.8567,26.7281 585.2317,26.7281 Q583.8879,26.7281 583.2004,27.8062 Q582.5129,28.8687 582.5129,30.9625 Q582.5129,33.0562 583.2004,34.1344 Q583.8879,35.1969 585.2317,35.1969 Q585.8567,35.1969 586.4504,34.9312 Q587.0442,34.65 587.6692,34.0719 L587.6692,36.7906 Z " fill="#000000"/><text fill="#000000" font-family="sans-serif" font-size="14" lengthAdjust="spacing" textLength="130.5527" x="605.2004" y="35.9967">BlockchainStorage</text><line style="stroke:#181818;stroke-width:0.5;" x1="502.49" x2="805.9636" y1="47.15" y2="47.15"/><rect fill="none" height="6" style="stroke:#C82930;stroke-width:1.0;" width="6" x="509.49" y="57.7984"/><text fill="#000000" font-family="sans-serif" font-size="14" lengthAdjust="spacing" textLength="102.0605" x="521.49" y="64.1451">filePath: string</text><line style="stroke:#181818;stroke-width:0.5;" x1="502.49" x2="805.9636" y1="71.4469" y2="71.4469"/><ellipse cx="512.49" cy="85.0953" fill="#84BE84" rx="3" ry="3" style="stroke:#038048;stroke-width:1.0;"/><text fill="#000000" font-family="sans-serif" font-size="14" lengthAdjust="spacing" textLength="279.4736" x="521.49" y="88.442">saveBlockchain(blockchain: Blockchain)</text><ellipse cx="512.49" cy="101.3922" fill="#84BE84" rx="3" ry="3" style="stroke:#038048;stroke-width:1.0;"/><text fill="#000000" font-family="sans-serif" font-size="14" lengthAdjust="spacing" textLength="201.5645" x="521.49" y="104.7389">loadBlockchain(): Blockchain</text></g><!--link Blockchain to Block--><g id="link_Blockchain_Block"><path codeLine="43" d="M337.54,309.98 C326.98,328.93 321.1882,339.316 310.3682,358.746 " fill="none" id="Blockchain-to-Block" style="stroke:#181818;stroke-width:1.0;"/><polygon fill="#181818" points="304.53,369.23,310.9438,365.9341,310.3682,358.746,303.9544,362.0419,304.53,369.23" style="stroke:#181818;stroke-width:1.0;"/></g><!--link Blockchain to Transaction--><g id="link_Blockchain_Transaction"><path codeLine="44" d="M408.92,309.98 C422.51,334.39 432.0472,351.5085 445.1972,375.0985 " fill="none" id="Blockchain-to-Transaction" style="stroke:#181818;stroke-width:1.0;"/><polygon fill="#181818" points="451.04,385.58,451.6124,378.3917,445.1972,375.0985,444.6248,382.2869,451.04,385.58" style="stroke:#181818;stroke-width:1.0;"/></g><!--link Node to Blockchain--><g id="link_Node_Blockchain"><path codeLine="45" d="M203.36,120.6 C229.27,139.4 248.6398,153.4693 275.3298,172.8493 " fill="none" id="Node-to-Blockchain" style="stroke:#181818;stroke-width:1.0;"/><polygon fill="#181818" points="285.04,179.9,282.5351,173.1379,275.3298,172.8493,277.8347,179.6114,285.04,179.9" style="stroke:#181818;stroke-width:1.0;"/></g><!--link ConsensusAlgorithm to Blockchain--><g id="link_ConsensusAlgorithm_Blockchain"><path codeLine="46" d="M373.23,103.95 C373.23,126.22 373.23,142.61 373.23,168 " fill="none" id="ConsensusAlgorithm-to-Blockchain" style="stroke:#181818;stroke-width:1.0;"/><polygon fill="#181818" points="373.23,180,377.23,174,373.23,168,369.23,174,373.23,180" style="stroke:#181818;stroke-width:1.0;"/></g><!--link BlockchainStorage to Blockchain--><g id="link_BlockchainStorage_Blockchain"><path codeLine="47" d="M579.29,112.41 C546.94,133.06 518.7264,151.0756 483.9464,173.2656 " fill="none" id="BlockchainStorage-to-Blockchain" style="stroke:#181818;stroke-width:1.0;"/><polygon fill="#181818" points="473.83,179.72,481.0396,179.8649,483.9464,173.2656,476.7367,173.1207,473.83,179.72" style="stroke:#181818;stroke-width:1.0;"/></g><!--SRC=[XLB1JeGm4Btp5Js2X1yWnaIvUDYOJTQRyJ1RPg6njAGTDXhZlrjQ5WgIU2epRsRUcpTm2TQo9wdv1sz1AFQTC5Om_rsoWx1qxy47doO3oW8deTLHQpaLl2xPiIndKDTHBeswIXO1cI_kX49FaOQuGQf6zZHRy_ya2L_4JZg5gl6pT0y5VQ93Iz3rIwetU1LwiCzWsvATlmZVthUxsFr52jQkctB6GV910k4upWcUHKMjaxIBqLt9B1cXca2eLo5qUb1q4vex-EJ1UEgBhd4QTvvFL4Rdyf1qsb6XSURo_Z05VgRpmj3aQmkgbbX9WOfIxX_V438HQUKCGMK7-oWRRGIrtNyI5gBraJn-8csWkQrn4HAFG6raXUk6AouDwJvFs49ggAFIRAN4iKT_Sb7S1N2RZ6wLU8VdoZ1cnu1DnT_jrWM_]--></g></svg>