<svg xmlns="http://www.w3.org/2000/svg" xmlns:xlink="http://www.w3.org/1999/xlink" contentStyleType="text/css" height="417px" preserveAspectRatio="none" style="width:1170px;height:417px;background:#FFFFFF;" version="1.1" viewBox="0 0 1170 417" width="1170px" zoomAndPan="magnify"><defs/><g><!--cluster node1--><g id="cluster_node1"><polygon fill="none" points="16,16,26,6,423,6,423,232.59,413,242.59,16,242.59,16,16" style="stroke:#181818;stroke-width:1.0;"/><line style="stroke:#181818;stroke-width:1.0;" x1="413" x2="423" y1="16" y2="6"/><line style="stroke:#181818;stroke-width:1.0;" x1="16" x2="413" y1="16" y2="16"/><line style="stroke:#181818;stroke-width:1.0;" x1="413" x2="413" y1="16" y2="242.59"/><text fill="#000000" font-family="sans-serif" font-size="14" font-weight="bold" lengthAdjust="spacing" textLength="55.4668" x="187.7666" y="31.9951">Node 1</text></g><!--cluster node2--><g id="cluster_node2"><polygon fill="none" points="463,134.3,473,124.3,870,124.3,870,390.89,860,400.89,463,400.89,463,134.3" style="stroke:#181818;stroke-width:1.0;"/><line style="stroke:#181818;stroke-width:1.0;" x1="860" x2="870" y1="134.3" y2="124.3"/><line style="stroke:#181818;stroke-width:1.0;" x1="463" x2="860" y1="134.3" y2="134.3"/><line style="stroke:#181818;stroke-width:1.0;" x1="860" x2="860" y1="134.3" y2="400.89"/><text fill="#000000" font-family="sans-serif" font-size="14" font-weight="bold" lengthAdjust="spacing" textLength="55.4668" x="634.7666" y="150.2951">Node 2</text></g><!--cluster storage--><g id="cluster_storage"><polygon fill="none" points="910,292.59,920,282.59,1153,282.59,1153,390.89,1143,400.89,910,400.89,910,292.59" style="stroke:#181818;stroke-width:1.0;"/><line style="stroke:#181818;stroke-width:1.0;" x1="1143" x2="1153" y1="292.59" y2="282.59"/><line style="stroke:#181818;stroke-width:1.0;" x1="910" x2="1143" y1="292.59" y2="292.59"/><line style="stroke:#181818;stroke-width:1.0;" x1="1143" x2="1143" y1="292.59" y2="400.89"/><text fill="#000000" font-family="sans-serif" font-size="14" font-weight="bold" lengthAdjust="spacing" textLength="152.3115" x="951.3442" y="308.5851">Blockchain Storage</text></g><!--entity blockchain1--><g id="elem_blockchain1"><rect fill="#F1F1F1" height="46.2969" rx="2.5" ry="2.5" style="stroke:#181818;stroke-width:0.5;" width="115.7764" x="40.11" y="54"/><rect fill="#F1F1F1" height="10" style="stroke:#181818;stroke-width:0.5;" width="15" x="135.8864" y="59"/><rect fill="#F1F1F1" height="2" style="stroke:#181818;stroke-width:0.5;" width="4" x="133.8864" y="61"/><rect fill="#F1F1F1" height="2" style="stroke:#181818;stroke-width:0.5;" width="4" x="133.8864" y="65"/><text fill="#000000" font-family="sans-serif" font-size="14" lengthAdjust="spacing" textLength="75.7764" x="55.11" y="86.9951">Blockchain</text></g><!--entity consensus1--><g id="elem_consensus1"><rect fill="#F1F1F1" height="46.2969" rx="2.5" ry="2.5" style="stroke:#181818;stroke-width:0.5;" width="188.4697" x="190.77" y="54"/><rect fill="#F1F1F1" height="10" style="stroke:#181818;stroke-width:0.5;" width="15" x="359.2397" y="59"/><rect fill="#F1F1F1" height="2" style="stroke:#181818;stroke-width:0.5;" width="4" x="357.2397" y="61"/><rect fill="#F1F1F1" height="2" style="stroke:#181818;stroke-width:0.5;" width="4" x="357.2397" y="65"/><text fill="#000000" font-family="sans-serif" font-size="14" lengthAdjust="spacing" textLength="148.4697" x="205.77" y="86.9951">Consensus Algorithm</text></g><!--entity listener1--><g id="elem_listener1"><rect fill="#F1F1F1" height="46.2969" rx="2.5" ry="2.5" style="stroke:#181818;stroke-width:0.5;" width="121.4639" x="40.27" y="172.3"/><rect fill="#F1F1F1" height="10" style="stroke:#181818;stroke-width:0.5;" width="15" x="141.7339" y="177.3"/><rect fill="#F1F1F1" height="2" style="stroke:#181818;stroke-width:0.5;" width="4" x="139.7339" y="179.3"/><rect fill="#F1F1F1" height="2" style="stroke:#181818;stroke-width:0.5;" width="4" x="139.7339" y="183.3"/><text fill="#000000" font-family="sans-serif" font-size="14" lengthAdjust="spacing" textLength="81.4639" x="55.27" y="205.2951">TcpListener</text></g><!--entity blockchain2--><g id="elem_blockchain2"><rect fill="#F1F1F1" height="46.2969" rx="2.5" ry="2.5" style="stroke:#181818;stroke-width:0.5;" width="115.7764" x="487.11" y="172.3"/><rect fill="#F1F1F1" height="10" style="stroke:#181818;stroke-width:0.5;" width="15" x="582.8864" y="177.3"/><rect fill="#F1F1F1" height="2" style="stroke:#181818;stroke-width:0.5;" width="4" x="580.8864" y="179.3"/><rect fill="#F1F1F1" height="2" style="stroke:#181818;stroke-width:0.5;" width="4" x="580.8864" y="183.3"/><text fill="#000000" font-family="sans-serif" font-size="14" lengthAdjust="spacing" textLength="75.7764" x="502.11" y="205.2951">Blockchain</text></g><!--entity consensus2--><g id="elem_consensus2"><rect fill="#F1F1F1" height="46.2969" rx="2.5" ry="2.5" style="stroke:#181818;stroke-width:0.5;" width="188.4697" x="637.77" y="172.3"/><rect fill="#F1F1F1" height="10" style="stroke:#181818;stroke-width:0.5;" width="15" x="806.2397" y="177.3"/><rect fill="#F1F1F1" height="2" style="stroke:#181818;stroke-width:0.5;" width="4" x="804.2397" y="179.3"/><rect fill="#F1F1F1" height="2" style="stroke:#181818;stroke-width:0.5;" width="4" x="804.2397" y="183.3"/><text fill="#000000" font-family="sans-serif" font-size="14" lengthAdjust="spacing" textLength="148.4697" x="652.77" y="205.2951">Consensus Algorithm</text></g><!--entity listener2--><g id="elem_listener2"><rect fill="#F1F1F1" height="46.2969" rx="2.5" ry="2.5" style="stroke:#181818;stroke-width:0.5;" width="121.4639" x="487.27" y="330.59"/><rect fill="#F1F1F1" height="10" style="stroke:#181818;stroke-width:0.5;" width="15" x="588.7339" y="335.59"/><rect fill="#F1F1F1" height="2" style="stroke:#181818;stroke-width:0.5;" width="4" x="586.7339" y="337.59"/><rect fill="#F1F1F1" height="2" style="stroke:#181818;stroke-width:0.5;" width="4" x="586.7339" y="341.59"/><text fill="#000000" font-family="sans-serif" font-size="14" lengthAdjust="spacing" textLength="81.4639" x="502.27" y="363.5851">TcpListener</text></g><!--entity blockchainStorage--><g id="elem_blockchainStorage"><rect fill="#F1F1F1" height="46.2969" rx="2.5" ry="2.5" style="stroke:#181818;stroke-width:0.5;" width="175.0029" x="934.5" y="330.59"/><rect fill="#F1F1F1" height="10" style="stroke:#181818;stroke-width:0.5;" width="15" x="1089.5029" y="335.59"/><rect fill="#F1F1F1" height="2" style="stroke:#181818;stroke-width:0.5;" width="4" x="1087.5029" y="337.59"/><rect fill="#F1F1F1" height="2" style="stroke:#181818;stroke-width:0.5;" width="4" x="1087.5029" y="341.59"/><text fill="#000000" font-family="sans-serif" font-size="14" lengthAdjust="spacing" textLength="135.0029" x="949.5" y="363.5851">Blockchain Storage</text></g><!--link node1 to node2--><g id="link_node1_node2"><path d="M423.0714,78.1541 C424.0212,78.1558 425.0497,78.158 426.154,78.1608 C428.3627,78.1664 430.8748,78.1745 433.6681,78.1859 C444.8416,78.2317 460.515,78.3318 479.2663,78.548 C516.7688,78.9803 566.5825,79.8769 617.33,81.7312 C718.825,85.44 824.055,92.98 842,108.3 C845.6788,111.44 848.755,115.1116 851.3213,119.1363 C851.9629,120.1425 852.5726,121.1708 853.1519,122.2183 C853.4416,122.7421 853.7236,123.2707 853.9982,123.8038 C854.0669,123.9371 854.135,124.0706 854.2028,124.2044 " fill="none" id="node1-node2" style="stroke:#181818;stroke-width:1.0;"/></g><!--link node1 to storage--><g id="link_node1_storage"><path d="M423.2681,78.1289 C423.501,78.1287 423.7385,78.1284 423.9807,78.1282 C424.4649,78.1278 424.9676,78.1275 425.4883,78.1273 C427.5714,78.1264 429.9441,78.1271 432.5875,78.1305 C443.1615,78.1442 458.0683,78.2009 476.1022,78.3694 C512.17,78.7062 560.7462,79.49 612.185,81.27 C715.0625,84.83 829.39,92.375 878,108.3 C1002.26,149 1051.1,159.41 1126,266.59 C1128.72,270.4825 1131.0598,274.6956 1133.0717,279.0946 C1133.5747,280.1944 1134.0572,281.3058 1134.5199,282.4267 " fill="none" id="node1-storage" style="stroke:#181818;stroke-width:1.0;"/></g><!--link node2 to storage--><g id="link_node2_storage"><path d="M870.0482,201.1771 C870.1493,201.2352 870.2512,201.2937 870.3539,201.3526 C871.998,202.2959 873.8631,203.3555 875.93,204.5141 C884.1975,209.1481 895.6925,215.3637 909.175,222.0375 C936.14,235.385 971.055,250.565 1004,258.59 C1017.2,261.81 1115.69,257.74 1126,266.59 C1129.66,269.7338 1132.707,273.4083 1135.2365,277.4354 C1135.8689,278.4421 1136.4689,279.471 1137.0381,280.519 C1137.3227,281.043 1137.5996,281.5719 1137.8689,282.1052 C1137.9362,282.2385 1138.0031,282.3721 1138.0695,282.506 " fill="none" id="node2-storage" style="stroke:#181818;stroke-width:1.0;"/></g><!--SRC=[bP313i8W38RlF4N3VGTu0_LglEWB83ORSMiNmDFYkwl0HcPYCY-a_VFHVa1yGv2dpwaac03qBXLC0i3oC38XHP3xdktTTiPHOgvBgzRSWIaWXKU0NT-oTx4RqWKxvr_ynOv75o8I-iJrfL7YAGHLDRsewSrg-ayrlKrDLxMw6iwHlManaI7NlqLNT1KkwJnVGTFa9zUsZ1Rv9shm0W00]--></g></svg>