<svg xmlns="http://www.w3.org/2000/svg" xmlns:xlink="http://www.w3.org/1999/xlink" contentStyleType="text/css" height="395px" preserveAspectRatio="none" style="width:693px;height:395px;background:#FFFFFF;" version="1.1" viewBox="0 0 693 395" width="693px" zoomAndPan="magnify"><defs/><g><line style="stroke:#181818;stroke-width:0.5;stroke-dasharray:5.0,5.0;" x1="30" x2="30" y1="36.2969" y2="360.625"/><line style="stroke:#181818;stroke-width:0.5;stroke-dasharray:5.0,5.0;" x1="237.7104" x2="237.7104" y1="36.2969" y2="360.625"/><line style="stroke:#181818;stroke-width:0.5;stroke-dasharray:5.0,5.0;" x1="447.2139" x2="447.2139" y1="36.2969" y2="360.625"/><line style="stroke:#181818;stroke-width:0.5;stroke-dasharray:5.0,5.0;" x1="612.6836" x2="612.6836" y1="36.2969" y2="360.625"/><rect fill="#E2E2F0" height="30.2969" rx="2.5" ry="2.5" style="stroke:#181818;stroke-width:0.5;" width="50.5381" x="5" y="5"/><text fill="#000000" font-family="sans-serif" font-size="14" lengthAdjust="spacing" textLength="36.5381" x="12" y="24.9951">Node</text><rect fill="#E2E2F0" height="30.2969" rx="2.5" ry="2.5" style="stroke:#181818;stroke-width:0.5;" width="50.5381" x="5" y="359.625"/><text fill="#000000" font-family="sans-serif" font-size="14" lengthAdjust="spacing" textLength="36.5381" x="12" y="379.6201">Node</text><rect fill="#E2E2F0" height="30.2969" rx="2.5" ry="2.5" style="stroke:#181818;stroke-width:0.5;" width="89.7764" x="193.7104" y="5"/><text fill="#000000" font-family="sans-serif" font-size="14" lengthAdjust="spacing" textLength="75.7764" x="200.7104" y="24.9951">Blockchain</text><rect fill="#E2E2F0" height="30.2969" rx="2.5" ry="2.5" style="stroke:#181818;stroke-width:0.5;" width="89.7764" x="193.7104" y="359.625"/><text fill="#000000" font-family="sans-serif" font-size="14" lengthAdjust="spacing" textLength="75.7764" x="200.7104" y="379.6201">Blockchain</text><rect fill="#E2E2F0" height="30.2969" rx="2.5" ry="2.5" style="stroke:#181818;stroke-width:0.5;" width="162.4697" x="366.2139" y="5"/><text fill="#000000" font-family="sans-serif" font-size="14" lengthAdjust="spacing" textLength="148.4697" x="373.2139" y="24.9951">Consensus Algorithm</text><rect fill="#E2E2F0" height="30.2969" rx="2.5" ry="2.5" style="stroke:#181818;stroke-width:0.5;" width="162.4697" x="366.2139" y="359.625"/><text fill="#000000" font-family="sans-serif" font-size="14" lengthAdjust="spacing" textLength="148.4697" x="373.2139" y="379.6201">Consensus Algorithm</text><rect fill="#E2E2F0" height="30.2969" rx="2.5" ry="2.5" style="stroke:#181818;stroke-width:0.5;" width="149.0029" x="538.6836" y="5"/><text fill="#000000" font-family="sans-serif" font-size="14" lengthAdjust="spacing" textLength="135.0029" x="545.6836" y="24.9951">Blockchain Storage</text><rect fill="#E2E2F0" height="30.2969" rx="2.5" ry="2.5" style="stroke:#181818;stroke-width:0.5;" width="149.0029" x="538.6836" y="359.625"/><text fill="#000000" font-family="sans-serif" font-size="14" lengthAdjust="spacing" textLength="135.0029" x="545.6836" y="379.6201">Blockchain Storage</text><line style="stroke:#181818;stroke-width:1.0;" x1="236.5986" x2="226.5986" y1="67.4297" y2="63.4297"/><line style="stroke:#181818;stroke-width:1.0;" x1="236.5986" x2="226.5986" y1="67.4297" y2="71.4297"/><line style="stroke:#181818;stroke-width:1.0;" x1="30.269" x2="237.5986" y1="67.4297" y2="67.4297"/><text fill="#000000" font-family="sans-serif" font-size="13" lengthAdjust="spacing" textLength="184.3296" x="37.269" y="62.3638">addTransaction(transaction)</text><line style="stroke:#181818;stroke-width:1.0;" x1="238.5986" x2="280.5986" y1="96.5625" y2="96.5625"/><line style="stroke:#181818;stroke-width:1.0;" x1="280.5986" x2="280.5986" y1="96.5625" y2="109.5625"/><line style="stroke:#181818;stroke-width:1.0;" x1="238.5986" x2="280.5986" y1="109.5625" y2="109.5625"/><line style="stroke:#181818;stroke-width:1.0;" x1="239.5986" x2="249.5986" y1="109.5625" y2="105.5625"/><line style="stroke:#181818;stroke-width:1.0;" x1="239.5986" x2="249.5986" y1="109.5625" y2="113.5625"/><text fill="#000000" font-family="sans-serif" font-size="13" lengthAdjust="spacing" textLength="151.125" x="245.5986" y="91.4966">add transaction to pool</text><line style="stroke:#181818;stroke-width:1.0;" x1="445.4487" x2="435.4487" y1="138.6953" y2="134.6953"/><line style="stroke:#181818;stroke-width:1.0;" x1="445.4487" x2="435.4487" y1="138.6953" y2="142.6953"/><line style="stroke:#181818;stroke-width:1.0;" x1="238.5986" x2="446.4487" y1="138.6953" y2="138.6953"/><text fill="#000000" font-family="sans-serif" font-size="13" lengthAdjust="spacing" textLength="77.8159" x="245.5986" y="133.6294">mineBlock()</text><line style="stroke:#181818;stroke-width:1.0;" x1="239.5986" x2="249.5986" y1="167.8281" y2="163.8281"/><line style="stroke:#181818;stroke-width:1.0;" x1="239.5986" x2="249.5986" y1="167.8281" y2="171.8281"/><line style="stroke:#181818;stroke-width:1.0;" x1="238.5986" x2="446.4487" y1="167.8281" y2="167.8281"/><text fill="#000000" font-family="sans-serif" font-size="13" lengthAdjust="spacing" textLength="184.8501" x="255.5986" y="162.7622">mine block and add to chain</text><line style="stroke:#181818;stroke-width:1.0;" x1="611.1851" x2="601.1851" y1="196.9609" y2="192.9609"/><line style="stroke:#181818;stroke-width:1.0;" x1="611.1851" x2="601.1851" y1="196.9609" y2="200.9609"/><line style="stroke:#181818;stroke-width:1.0;" x1="238.5986" x2="612.1851" y1="196.9609" y2="196.9609"/><text fill="#000000" font-family="sans-serif" font-size="13" lengthAdjust="spacing" textLength="104.2603" x="245.5986" y="191.895">save blockchain</text><line style="stroke:#181818;stroke-width:1.0;" x1="239.5986" x2="249.5986" y1="226.0938" y2="222.0938"/><line style="stroke:#181818;stroke-width:1.0;" x1="239.5986" x2="249.5986" y1="226.0938" y2="230.0938"/><line style="stroke:#181818;stroke-width:1.0;" x1="238.5986" x2="612.1851" y1="226.0938" y2="226.0938"/><text fill="#000000" font-family="sans-serif" font-size="13" lengthAdjust="spacing" textLength="145.374" x="255.5986" y="221.0278">save blockchain to file</text><line style="stroke:#181818;stroke-width:1.0;" x1="236.5986" x2="226.5986" y1="255.2266" y2="251.2266"/><line style="stroke:#181818;stroke-width:1.0;" x1="236.5986" x2="226.5986" y1="255.2266" y2="259.2266"/><line style="stroke:#181818;stroke-width:1.0;" x1="30.269" x2="237.5986" y1="255.2266" y2="255.2266"/><text fill="#000000" font-family="sans-serif" font-size="13" lengthAdjust="spacing" textLength="68.6245" x="37.269" y="250.1606">getChain()</text><line style="stroke:#181818;stroke-width:1.0;" x1="31.269" x2="41.269" y1="284.3594" y2="280.3594"/><line style="stroke:#181818;stroke-width:1.0;" x1="31.269" x2="41.269" y1="284.3594" y2="288.3594"/><line style="stroke:#181818;stroke-width:1.0;" x1="30.269" x2="237.5986" y1="284.3594" y2="284.3594"/><text fill="#000000" font-family="sans-serif" font-size="13" lengthAdjust="spacing" textLength="79.5996" x="47.269" y="279.2935">return chain</text><line style="stroke:#181818;stroke-width:1.0;" x1="239.5986" x2="249.5986" y1="313.4922" y2="309.4922"/><line style="stroke:#181818;stroke-width:1.0;" x1="239.5986" x2="249.5986" y1="313.4922" y2="317.4922"/><line style="stroke:#181818;stroke-width:1.0;" x1="238.5986" x2="446.4487" y1="313.4922" y2="313.4922"/><text fill="#000000" font-family="sans-serif" font-size="13" lengthAdjust="spacing" textLength="40.4219" x="255.5986" y="308.4263">start()</text><line style="stroke:#181818;stroke-width:1.0;" x1="445.4487" x2="435.4487" y1="342.625" y2="338.625"/><line style="stroke:#181818;stroke-width:1.0;" x1="445.4487" x2="435.4487" y1="342.625" y2="346.625"/><line style="stroke:#181818;stroke-width:1.0;" x1="238.5986" x2="446.4487" y1="342.625" y2="342.625"/><text fill="#000000" font-family="sans-serif" font-size="13" lengthAdjust="spacing" textLength="124.4268" x="245.5986" y="337.5591">start mining blocks</text><!--SRC=[XP514e8m34NtFKM65Iwy00jcrBqRlK242XqnOThW-RMb0r9mtANvB_b9sgCLKvaUIU3CjGPqaFaWK_sNTEouUbGj6Wh0_5nY9oQdoGtkq3LiZRJFW4zfcFA_sb-4BJOwSO6OpfJoi-tBSjOAmBg-MYI7bHYcNEPufsPkNGHV90X3pzmj2zRx5F0qf0EKxzHQJrmy33UV0AHwD6K8ug_Huge5E7p5sfIFIEALyDxeRZgzUR96oyb7UN8XZnPWjGoMufZ_btJo-SgqqzRf0kXlOgWP9tLl]--></g></svg>